<svg width="760" height="620" viewBox="0 0 760 620" fill="none" xmlns="http://www.w3.org/2000/svg">
  <defs>
    <linearGradient id="bg" x1="80" y1="60" x2="620" y2="520" gradientUnits="userSpaceOnUse">
      <stop stop-color="#EAF4FF"/>
      <stop offset="1" stop-color="#F8FBFF"/>
    </linearGradient>
    <linearGradient id="coat" x1="342" y1="240" x2="448" y2="406" gradientUnits="userSpaceOnUse">
      <stop stop-color="#1D64E5"/>
      <stop offset="1" stop-color="#0F4CC9"/>
    </linearGradient>
    <linearGradient id="tool" x1="475" y1="340" x2="475" y2="470" gradientUnits="userSpaceOnUse">
      <stop stop-color="#0F172A"/>
      <stop offset="1" stop-color="#1E293B"/>
    </linearGradient>
    <filter id="shadow" x="0" y="0" width="760" height="620" filterUnits="userSpaceOnUse" color-interpolation-filters="sRGB">
      <feFlood flood-opacity="0" result="BackgroundImageFix"/>
      <feColorMatrix in="SourceAlpha" type="matrix" values="0 0 0 0 0 0 0 0 0 0 0 0 0 0 0 0 0 0 127 0" result="hardAlpha"/>
      <feOffset dy="14"/>
      <feGaussianBlur stdDeviation="18"/>
      <feComposite in2="hardAlpha" operator="out"/>
      <feColorMatrix type="matrix" values="0 0 0 0 0.0588235 0 0 0 0 0.0901961 0 0 0 0 0.164706 0 0 0 0.18 0"/>
      <feBlend mode="normal" in2="BackgroundImageFix" result="effect1_dropShadow_1_1"/>
      <feBlend mode="normal" in="SourceGraphic" in2="effect1_dropShadow_1_1" result="shape"/>
    </filter>
  </defs>

  <g filter="url(#shadow)">
    <rect x="54" y="40" width="652" height="520" rx="40" fill="url(#bg)"/>
  </g>

  <circle cx="140" cy="120" r="54" fill="#DCEEFF"/>
  <circle cx="612" cy="108" r="36" fill="#D9F6F7"/>
  <circle cx="644" cy="154" r="16" fill="#C7E2FF"/>

  <rect x="85" y="408" width="590" height="92" rx="28" fill="#D8EAFE"/>
  <rect x="90" y="412" width="578" height="86" rx="26" fill="#EDF6FF"/>

  <rect x="126" y="170" width="192" height="250" rx="32" fill="#FFFFFF" stroke="#D7E7F6" stroke-width="4"/>
  <rect x="160" y="160" width="124" height="72" rx="18" fill="#1C64F2"/>
  <rect x="196" y="248" width="54" height="80" rx="12" fill="#EAF4FF"/>
  <rect x="148" y="256" width="52" height="120" rx="16" fill="#F3F8FF"/>
  <rect x="246" y="256" width="52" height="120" rx="16" fill="#F3F8FF"/>
  <rect x="112" y="330" width="24" height="90" fill="#E3F0FF"/>
  <rect x="308" y="330" width="24" height="90" fill="#E3F0FF"/>
  <circle cx="222" cy="194" r="12" fill="#FFFFFF"/>
  <rect x="150" y="394" width="34" height="18" rx="9" fill="#BFD7F3"/>
  <rect x="256" y="394" width="34" height="18" rx="9" fill="#BFD7F3"/>

  <rect x="388" y="196" width="164" height="56" rx="24" fill="#FFFFFF" stroke="#D5E4F6" stroke-width="3"/>
  <circle cx="422" cy="224" r="13" fill="#1D64E5"/>
  <path d="M416 224L421 229L430 219" stroke="#FFFFFF" stroke-width="4" stroke-linecap="round" stroke-linejoin="round"/>
  <text x="450" y="232" fill="#0F172A" font-family="Segoe UI, Arial, sans-serif" font-size="24" font-weight="700">Verified Visit</text>

  <g transform="translate(296 160)">
    <ellipse cx="86" cy="320" rx="112" ry="26" fill="#D3E7FF"/>

    <path d="M118 115C132 115 144 126 144 140V203H92V140C92 126 104 115 118 115Z" fill="url(#coat)"/>
    <path d="M77 167C94 150 106 144 122 143C140 142 153 151 165 165V221H77V167Z" fill="url(#coat)"/>
    <rect x="108" y="124" width="22" height="36" rx="10" fill="#FFC8AA"/>
    <path d="M101 139H137L150 178H88L101 139Z" fill="#FFFFFF"/>

    <circle cx="119" cy="95" r="36" fill="#FFC8AA"/>
    <path d="M86 95C86 69 104 50 129 50C145 50 159 61 163 78C149 82 136 82 125 78C116 84 104 90 86 95Z" fill="#0F172A"/>
    <path d="M115 99C120 103 126 103 131 99" stroke="#AB5E45" stroke-width="3" stroke-linecap="round"/>
    <circle cx="107" cy="91" r="3.5" fill="#0F172A"/>
    <circle cx="132" cy="91" r="3.5" fill="#0F172A"/>

    <path d="M79 170C63 186 49 209 46 236" stroke="#FFC8AA" stroke-width="18" stroke-linecap="round"/>
    <path d="M160 174C179 186 194 205 201 228" stroke="#FFC8AA" stroke-width="18" stroke-linecap="round"/>
    <path d="M197 226L229 214L236 233L205 247" fill="#0F172A"/>

    <path d="M92 204H146V292C146 311 131 326 112 326C94 326 80 312 80 294V225C80 214 84 208 92 204Z" fill="url(#coat)"/>
    <rect x="84" y="290" width="26" height="82" rx="12" fill="#16233A"/>
    <rect x="122" y="290" width="26" height="82" rx="12" fill="#16233A"/>
    <rect x="79" y="362" width="36" height="12" rx="6" fill="#0F172A"/>
    <rect x="117" y="362" width="36" height="12" rx="6" fill="#0F172A"/>

    <rect x="149" y="196" width="54" height="98" rx="18" fill="url(#tool)"/>
    <rect x="160" y="183" width="32" height="24" rx="10" fill="#334155"/>
    <rect x="162" y="226" width="28" height="8" rx="4" fill="#EAF4FF"/>
    <rect x="162" y="244" width="28" height="8" rx="4" fill="#EAF4FF"/>
    <rect x="162" y="262" width="28" height="8" rx="4" fill="#EAF4FF"/>
  </g>

  <g transform="translate(504 296)">
    <ellipse cx="78" cy="124" rx="66" ry="18" fill="#D5E9FF"/>
    <circle cx="72" cy="38" r="28" fill="#FFD9C2"/>
    <path d="M47 38C47 18 62 4 80 4C95 4 107 14 111 29C97 29 84 26 74 20C68 27 60 33 47 38Z" fill="#0F172A"/>
    <path d="M46 78C59 66 73 61 88 61C101 61 113 66 122 76V126H42L46 78Z" fill="#22C1B5"/>
    <rect x="56" y="126" width="20" height="68" rx="10" fill="#1E293B"/>
    <rect x="88" y="126" width="20" height="68" rx="10" fill="#1E293B"/>
    <rect x="52" y="188" width="30" height="10" rx="5" fill="#0F172A"/>
    <rect x="84" y="188" width="30" height="10" rx="5" fill="#0F172A"/>
    <path d="M44 86L19 118" stroke="#FFD9C2" stroke-width="14" stroke-linecap="round"/>
    <path d="M120 88L147 112" stroke="#FFD9C2" stroke-width="14" stroke-linecap="round"/>
  </g>

  <rect x="496" y="424" width="156" height="58" rx="22" fill="#FFFFFF" stroke="#D5E4F6" stroke-width="3"/>
  <circle cx="528" cy="453" r="14" fill="#16A34A"/>
  <path d="M522 453L527 458L536 448" stroke="#FFFFFF" stroke-width="4" stroke-linecap="round" stroke-linejoin="round"/>
  <text x="552" y="460" fill="#0F172A" font-family="Segoe UI, Arial, sans-serif" font-size="22" font-weight="700">Job Started</text>
</svg>
